
        <svg xmlns="http://www.w3.org/2000/svg" xmlns:xlink="http://www.w3.org/1999/xlink" version="1.1" width="3171.4285714285716" 
        height="1580.8179364002692" viewBox="0 0 3171.4285714285716 1580.8179364002692">
			
			<g transform="scale(8.571428571428571) translate(10, 10)">
				<defs id="SvgjsDefs1069"></defs><g id="SvgjsG1070" featureKey="symbolFeature-0" transform="matrix(1.085746457592585,0,0,1.085746457592585,120.69145870948877,-16.569328869215674)" fill="#dcdcdc"><path xmlns="http://www.w3.org/2000/svg" d="M91.4,48.7c-1.9-7.5-3.9-15-5.8-22.5c-0.1-0.4-0.3-0.6-0.7-0.8c-9.4-3.3-18.7-6.6-28-9.9c-0.6-0.2-1.2-0.3-1.8-0.2  c-6.4,0.6-12.8,1.3-19.1,1.9c-0.5,0.1-1.1,0.1-1.6,0.3c-4,1.9-8.1,3.8-12.2,5.6c-0.3,0.1-0.6,0.3-0.8,0.6  c-3.4,3.4-6.7,6.8-10.1,10.2c-0.2,0.2-0.4,0.5-0.4,0.8c-0.7,4.1-1.5,8.1-2.3,12.2c-0.1,0.5,0.1,0.8,0.3,1.1  c3.6,4.6,7.2,9.1,10.8,13.7c0.3,0.4,0.7,0.6,1.2,0.6c4.6,0,9.3,0,13.9,0c0.5,0,0.9,0.1,1.3,0.5c4.4,3.8,8.8,7.6,13.2,11.4  c0.4,0.3,0.6,0.4,1,0c1-0.8,2.1-1.6,3.4-2.6c0,0.4,0,0.7,0,1c0,0.6,0,1.1,0.6,1.6c4.3,3.3,8.6,6.7,12.9,10.1  c0.3,0.3,0.6,0.4,1.1,0.4c2.3,0,4.5,0,6.8,0c0.8,0,0.8,0,0.4-0.7c-2-3.7-3.9-7.5-6-11.2c-0.3-0.5-0.2-0.7,0.3-1.1  c4.5-3.2,9-6.4,13.6-9.5c0.3-0.2,0.6-0.5,0.8-0.9c2.4-3.9,4.7-7.7,7.1-11.6C91.5,49.4,91.5,49.1,91.4,48.7z M25.6,25.9  c3.3-1.5,6.6-3.1,9.9-4.7c0.9-0.5,1.9-0.6,2.8-0.7c5.8-0.6,11.6-1.1,17.4-1.7c0.3,0,0.7,0,1,0.1c8.6,3,17.1,6,25.7,9  c0.4,0.1,0.6,0.3,0.7,0.7c0.3,1.3,0.7,2.7,1.1,4c0.2,0.5,0,0.6-0.5,0.6c-5.3,0-10.6,0-15.9,0c-0.5,0-0.8,0.1-1.1,0.6  c-0.8,1.5-1.7,3-2.5,4.4c-0.2,0.3-0.4,0.5-0.8,0.5c-5.1,0-10.2,0-15.4,0c-0.3,0-0.6-0.1-0.8-0.4c-0.7-1.2-1.3-2.3-2-3.5  c-0.2-0.3-0.2-0.6,0-0.9c0.8-1,1.5-2.1,2.3-3.2c0.2-0.3,0.4-0.4,0.8-0.4c3.3,0,6.5,0,9.8,0c0.4,0,0.7,0.2,1,0.4  c1.2,0.8,2.7,0.7,3.7-0.3c0.9-1,1.1-2.5,0.3-3.7c-0.8-1.1-2.4-1.7-3.6-0.9c-1.1,0.8-2.2,0.7-3.3,0.7c-3.2,0-6.5,0-9.7,0  c-0.5,0-0.7,0.1-1,0.5c-0.7,1.1-1.5,2.2-2.2,3.3c-0.3,0.4-0.4,0.4-0.6,0c-0.3-1-1-1.2-2-1.2c-5.8,0.1-11.6,0-17.4,0  c-0.3,0-0.5,0-0.8,0C23.3,28,24.1,26.6,25.6,25.9z M80.3,59.4c-5.3,3.7-10.5,7.4-15.8,11.1c-0.4,0.3-0.5,0.5-0.2,1  c1.5,2.8,2.9,5.6,4.4,8.4c0.1,0.2,0.3,0.5,0.2,0.8c-3.7-2.9-7.3-5.7-11-8.5c-0.3-0.3-0.3-0.5-0.3-0.9c0-2.5,0-4.9,0-7.4  c-0.3,0-0.5,0.2-0.7,0.4c-2.1,1.6-4.3,3.3-6.4,4.9c-0.5,0.4-0.8,0.3-1.2-0.1c-3.9-3.4-7.8-6.8-11.7-10.2c-0.4-0.3-0.8-0.5-1.3-0.5  c-4.5,0-9,0-13.5,0c-0.8,0-1.1-0.6-1.5-1.1c-0.2-0.2,0.1-0.4,0.2-0.6c0.7-1,1.4-1.9,2-2.9c0.6-0.8,1.7-1,2.5-0.4  c1.9,1.4,4.3,0.5,4.6-1.8c0.2-1.2-0.4-2.3-1.4-2.9c-1-0.6-2.4-0.5-3.2,0.3c-0.3,0.2-0.5,0.3-0.9,0.3c-0.9,0-1.8,0-2.7,0  c-0.4,0-0.7,0.1-0.9,0.5c-0.9,1.3-1.8,2.5-2.7,3.8c-0.3,0.4-0.4,0.4-0.7,0c-1.7-2.3-3.5-4.6-5.2-6.8c-0.2-0.3-0.3-0.5-0.2-0.9  c0.1-0.7,0.3-1.3,0.3-2c0.1-0.5,0.3-0.7,0.8-0.7c5.3,0,10.6,0,15.9,0c1,0,2,0,3,0c0.5,0,0.7,0.1,1,0.6c1.6,2.9,3.3,5.8,5,8.7  c0.3,0.5,0.5,0.8,1.1,0.7c1.5-0.3,2.4,0.3,3,1.7c0.8,1.8,2,3.5,2.9,5.2c0.2,0.4,0.4,0.5,0.8,0.5c1.1,0,2.2,0,3.3,0  c0.9,0,1.7,0,2.6,0.6c1,0.7,2.7,0.4,3.3-0.5c1.1-1.4,1-3,0-4.1c-1-1-2.7-1.3-3.7-0.4c-0.5,0.4-1,0.4-1.6,0.5c-1.7,0.3-2.8-0.3-3.3-2  c-0.2-0.4-0.4-0.8-0.7-1.4c0.3,0,0.5,0,0.7,0c4.3,0,8.5,0,12.8,0c0.5,0,0.7,0.1,1,0.6c0.6,1.2,1.3,2.3,2,3.4c0.2,0.4,0.5,0.5,1,0.5  c5.6,0,11.3,0,16.9,0c0.3,0,0.5,0,0.9,0C81.3,58.4,80.9,59,80.3,59.4z M86.9,48.9c-0.9,1.4-1.7,2.8-2.6,4.2  c-0.2,0.3-0.4,0.4-0.8,0.4c-5.8,0-11.7,0-17.5,0c-0.4,0-0.6-0.2-0.8-0.5c-0.7-1.2-1.4-2.3-2-3.5c-0.2-0.4-0.5-0.6-1-0.6  c-6.7,0-13.3,0-20,0c-0.5,0-0.9-0.1-1.1-0.6c-1.6-2.9-3.3-5.7-5-8.6c-0.3-0.5-0.5-0.6-1.1-0.6c-6.8,0-13.6,0-20.3,0  c-0.7,0-0.7-0.1-0.7-0.8c0.2-2.2,1.9-3.3,3.2-4.8c0.2-0.2,0.5-0.2,0.7-0.2c3.3,0,6.7,0,10,0c3.3,0,6.7,0,10,0c0.5,0,0.7,0.1,1,0.6  c1.7,2.9,3.4,5.9,5.1,8.8c0.2,0.4,0.5,0.6,1,0.6c6.6,0,13.2,0,19.8,0c0.5,0,0.7-0.2,0.9-0.6c0.8-1.5,1.7-3,2.5-4.4  c0.2-0.4,0.4-0.5,0.8-0.5c4.9,0,9.9,0,14.8,0c0.5,0,0.7,0.2,0.8,0.6c0.4,1.8,0.9,3.6,1.4,5.4c0.2,0.5,0,0.7-0.5,0.6  c-3.2,0-6.4,0-9.6,0c-0.4,0-0.6-0.1-0.9-0.3c-1.3-1-2.9-0.8-3.9,0.3c-1,1.1-1,2.9,0.1,3.9c1.1,1.1,2.7,1.2,4,0.1  c0.2-0.2,0.4-0.2,0.7-0.2c3.6,0,7.1,0,10.7,0C87.2,48.3,87.2,48.5,86.9,48.9z"></path></g><g id="SvgjsG1071" featureKey="nameFeature-0" transform="matrix(0.8472729988690271,0,0,0.8472729988690271,-2.3384744788264125,85.8833714270538)" fill="#696969"><path d="M15 11.440000000000001 c4.0532 0 7.24 1.2533 9.56 3.76 s3.48 5.96 3.48 10.36 c0 4.56 -1.1667 8.1068 -3.5 10.64 s-5.46 3.8 -9.38 3.8 l-12.4 0 l0 -28.56 l12.24 0 z M14.6 34.72 c2.2667 0 4.0268 -0.74668 5.28 -2.24 s1.88 -3.6133 1.88 -6.36 c0 -3.1467 -0.67332 -5.5 -2.02 -7.06 s-3.42 -2.34 -6.22 -2.34 l-4.48 0 l0 18 l5.56 0 z M51.17 11.440000000000001 l10.68 28.56 l-6.52 0 l-2.16 -6.36 l-10.68 0 l-2.24 6.36 l-6.36 0 l10.84 -28.56 l6.44 0 z M47.85 18.48 l-3.72 10.48 l7.4 0 l-3.6 -10.48 l-0.08 0 z M77.7 11.440000000000001 l6.68 19.64 l0.08 0 l6.32 -19.64 l8.84 0 l0 28.56 l-5.88 0 l0 -20.24 l-0.08 0 l-7 20.24 l-4.84 0 l-7 -20.04 l-0.08 0 l0 20.04 l-5.88 0 l0 -28.56 l8.84 0 z M115.95000000000002 11.440000000000001 l0 28.56 l-6.28 0 l0 -28.56 l6.28 0 z M132.28 11.440000000000001 l0 23.28 l13.92 0 l0 5.28 l-20.2 0 l0 -28.56 l6.28 0 z M167.05 10.760000000000002 c4.2132 0 7.6068 1.4 10.18 4.2 s3.86 6.4268 3.86 10.88 c0 4.3468 -1.2933 7.9068 -3.88 10.68 s-5.9732 4.16 -10.16 4.16 c-4.2132 0 -7.6068 -1.3867 -10.18 -4.16 s-3.86 -6.3332 -3.86 -10.68 c0 -4.4268 1.2933 -8.0468 3.88 -10.86 s5.9732 -4.22 10.16 -4.22 z M159.29000000000002 25.84 c0 2.88 0.67996 5.1932 2.04 6.94 s3.2667 2.62 5.72 2.62 c2.4 0 4.2932 -0.86 5.68 -2.58 s2.08 -4.0468 2.08 -6.98 c0 -3.0667 -0.68668 -5.4668 -2.06 -7.2 s-3.2866 -2.6 -5.74 -2.6 c-2.4 0 -4.2868 0.86668 -5.66 2.6 s-2.06 4.1332 -2.06 7.2 z M196.18 11.440000000000001 l0 23.28 l13.92 0 l0 5.28 l-20.2 0 l0 -28.56 l6.28 0 z M232.39000000000001 11.440000000000001 l10.68 28.56 l-6.52 0 l-2.16 -6.36 l-10.68 0 l-2.24 6.36 l-6.36 0 l10.84 -28.56 l6.44 0 z M229.07000000000002 18.48 l-3.72 10.48 l7.4 0 l-3.6 -10.48 l-0.08 0 z M269.69000000000005 11.440000000000001 l6.68 11.28 l6.64 -11.28 l7 0 l-10.6 17.6 l0 10.96 l-6.28 0 l0 -11.12 l-10.52 -17.44 l7.08 0 z M303.1 11.440000000000001 l-0.000039062 17.88 c0 2.1067 0.47332 3.6467 1.42 4.62 s2.4334 1.46 4.46 1.46 c2.1867 0 3.72 -0.48668 4.6 -1.46 s1.32 -2.5133 1.32 -4.62 l0 -17.88 l6.28 0 l0 17.88 c0 3.5733 -1.02 6.36 -3.06 8.36 s-5.0868 3 -9.14 3 c-4.1332 0 -7.1932 -1 -9.18 -3 s-2.98 -4.7868 -2.98 -8.36 l0 -17.88 l6.28 0 z M340.95000000000005 10.760000000000002 c3.4933 0 6.2732 0.80004 8.34 2.4 s3.1 3.8667 3.1 6.8 l-6.08 0 c-0.08 -1.44 -0.56668 -2.52 -1.46 -3.24 s-2.2733 -1.08 -4.14 -1.08 c-1.3067 0 -2.36 0.28668 -3.16 0.86 s-1.2 1.3666 -1.2 2.38 c0 0.82668 0.24668 1.4267 0.74 1.8 s1.1933 0.70664 2.1 0.99996 s2.4934 0.72 4.76 1.28 c2.3733 0.58668 4.2 1.2267 5.48 1.92 s2.2533 1.58 2.92 2.66 s1 2.4067 1 3.98 c0 1.8133 -0.48 3.4266 -1.44 4.84 s-2.36 2.4866 -4.2 3.22 s-3.92 1.1 -6.24 1.1 c-3.5467 0 -6.46 -0.88668 -8.74 -2.66 s-3.42 -4.2068 -3.42 -7.3 l0 -0.2 l6.08 0 c0 1.68 0.57332 2.98 1.72 3.9 s2.6667 1.38 4.56 1.38 c1.68 0 3.0333 -0.3 4.06 -0.9 s1.54 -1.4867 1.54 -2.66 c0 -0.77332 -0.28 -1.4266 -0.84 -1.96 s-1.3067 -0.96664 -2.24 -1.3 s-2.5066 -0.75332 -4.72 -1.26 c-2.56 -0.64 -4.4268 -1.32 -5.6 -2.04 s-2.0666 -1.5933 -2.68 -2.62 s-0.92 -2.26 -0.92 -3.7 c0 -1.7867 0.51332 -3.3467 1.54 -4.68 s2.3667 -2.32 4.02 -2.96 s3.36 -0.96 5.12 -0.96 z M367.76000000000005 11.440000000000001 l-0.000039062 17.88 c0 2.1067 0.47332 3.6467 1.42 4.62 s2.4334 1.46 4.46 1.46 c2.1867 0 3.72 -0.48668 4.6 -1.46 s1.32 -2.5133 1.32 -4.62 l0 -17.88 l6.28 0 l0 17.88 c0 3.5733 -1.02 6.36 -3.06 8.36 s-5.0868 3 -9.14 3 c-4.1332 0 -7.1932 -1 -9.18 -3 s-2.98 -4.7868 -2.98 -8.36 l0 -17.88 l6.28 0 z M415.85 11.440000000000001 l0 5.28 l-13.8 0 l0 6.6 l11.96 0 l0 4.88 l-11.96 0 l0 11.8 l-6.28 0 l0 -28.56 l20.08 0 z"></path></g><g id="SvgjsG1072" featureKey="sloganFeature-0" transform="matrix(1.5559718509290308,0,0,1.5559718509290308,65.59962537126113,132.78028859359836)" fill="#dcdcdc"><path d="M5.18 7.279999999999999 l0 10.54 l3.38 0 q1.4 0 2.52 -0.72 q1.06 -0.7 1.66 -1.88 t0.6 -2.58 q0 -1.46 -0.57 -2.68 t-1.63 -1.94 q-1.14 -0.74 -2.62 -0.74 l-3.34 0 z M1.86 7.279999999999999 l-0.96 -2.2 l7.6 0 q1.98 0 3.62 1.02 q1.58 0.98 2.5 2.68 t0.92 3.7 q0 1.5 -0.59 2.97 t-1.63 2.57 q-1 1.08 -2.14 1.54 q-1.1 0.44 -2.62 0.44 l-5.52 0 l0 -12.72 l-1.18 0 z M21.12 14.02 l0 3.8 l9.2 0 l0 2.18 l-11.38 0 l0 -14.92 l10.5 0 l0 2.2 l-8.32 0 l0 4.52 q0.62 -0.36 1.38 -0.48 q0.56 -0.1 1.44 -0.1 l3.26 0 l0 2.22 l-3.26 0 q-0.82 0 -1.44 0.1 q-0.76 0.14 -1.38 0.48 z M47.220000000000006 5.08 l-6.26 14.92 l-2.58 0 l-6.16 -14.92 l2.36 0 l5.1 12.48 l5.14 -12.48 l2.4 0 z M52.20000000000001 14.02 l0 3.8 l9.2 0 l0 2.18 l-11.38 0 l0 -14.92 l10.5 0 l0 2.2 l-8.32 0 l0 4.52 q0.62 -0.36 1.38 -0.48 q0.56 -0.1 1.44 -0.1 l3.26 0 l0 2.22 l-3.26 0 q-0.82 0 -1.44 0.1 q-0.76 0.14 -1.38 0.48 z M75.36000000000001 20 l-10.46 0 l0 -14.92 l2.18 0 l0 12.74 l8.28 0 l0 2.18 z M90.86 12.440000000000001 q0 -1.6 -0.82 -2.9 q-0.78 -1.26 -2.13 -1.98 t-2.93 -0.72 q-1.64 0 -2.99 0.74 t-2.11 2.02 q-0.78 1.34 -0.78 2.98 q0 1.56 0.84 2.88 q0.8 1.24 2.15 1.97 t2.92 0.73 t2.92 -0.76 t2.13 -2.04 q0.8 -1.34 0.8 -2.92 z M93.02000000000001 12.559999999999999 q0 2.16 -1.12 3.98 q-1.08 1.74 -2.93 2.77 t-3.99 1.03 q-2.22 0 -4.08 -1.08 q-1.82 -1.04 -2.86 -2.86 q-1.08 -1.86 -1.08 -4.08 q0 -2.14 1.14 -3.94 q1.08 -1.72 2.93 -2.73 t3.97 -1.01 q2.18 0 4.04 1.06 q1.82 1.04 2.88 2.82 q1.1 1.86 1.1 4.04 z M101.44 11.46 l2.64 0 q2.2 0 2.2 -2.12 q0 -1.1 -0.55 -1.59 t-1.65 -0.49 l-5.48 0 l0 4.8 q0.62 -0.36 1.4 -0.5 q0.58 -0.1 1.44 -0.1 z M98.6 20 l-2.18 0 l0 -14.92 l7.66 0 q1.32 0 2.3 0.51 t1.52 1.47 t0.54 2.27 t-0.54 2.29 t-1.53 1.51 t-2.29 0.53 l-2.64 0 q-1.72 0 -2.84 0.6 l0 5.74 z M113.82 14.02 l0 3.8 l9.2 0 l0 2.18 l-11.38 0 l0 -14.92 l10.5 0 l0 2.2 l-8.32 0 l0 4.52 q0.62 -0.36 1.38 -0.48 q0.56 -0.1 1.44 -0.1 l3.26 0 l0 2.22 l-3.26 0 q-0.82 0 -1.44 0.1 q-0.76 0.14 -1.38 0.48 z M128.7 7.26 l0 4.96 q0.62 -0.36 1.38 -0.48 q0.56 -0.1 1.44 -0.1 l2.84 0 q1.18 0 1.84 -0.54 q0.7 -0.58 0.7 -1.74 q0 -1.1 -0.74 -1.64 q-0.64 -0.46 -1.8 -0.46 l-5.66 0 z M135.07999999999998 17.64 l-1.82 -3.82 l-1.74 0 q-0.82 0 -1.44 0.1 q-0.76 0.14 -1.38 0.48 l0 5.6 l-2.18 0 l0 -14.92 l7.84 0 q1.38 0 2.44 0.52 t1.64 1.48 q0.62 1.02 0.62 2.4 q0 1.68 -0.9 2.76 t-2.54 1.5 l1.16 2.38 q0.5 0.74 0.78 1.04 q0.34 0.38 0.65 0.51 t0.81 0.13 l0.22 0 l0.48 -0.02 l0 2.22 q-1.16 0 -1.72 -0.08 q-0.94 -0.16 -1.6 -0.62 q-0.78 -0.56 -1.32 -1.66 z"></path></g>
			</g>
		</svg>
	