<svg width="3191.42857" height="803.00375" xmlns="http://www.w3.org/2000/svg">
 <g>
  <title>Layer 1</title>
  <g id="svg_1" transform="scale(8.571428298950195) translate(10,10) ">

   <g fill="#dcdcdc" transform="matrix(1.085746457592585,0,0,1.085746457592585,120.69145870948877,-16.569328869215674) " id="SvgjsG5363">
    <path id="svg_2" d="m91.4,48.7c-1.9,-7.5 -3.9,-15 -5.8,-22.5c-0.1,-0.4 -0.3,-0.6 -0.7,-0.8c-9.4,-3.3 -18.7,-6.6 -28,-9.9c-0.6,-0.2 -1.2,-0.3 -1.8,-0.2c-6.4,0.6 -12.8,1.3 -19.1,1.9c-0.5,0.1 -1.1,0.1 -1.6,0.3c-4,1.9 -8.1,3.8 -12.2,5.6c-0.3,0.1 -0.6,0.3 -0.8,0.6c-3.4,3.4 -6.7,6.8 -10.1,10.2c-0.2,0.2 -0.4,0.5 -0.4,0.8c-0.7,4.1 -1.5,8.1 -2.3,12.2c-0.1,0.5 0.1,0.8 0.3,1.1c3.6,4.6 7.2,9.1 10.8,13.7c0.3,0.4 0.7,0.6 1.2,0.6c4.6,0 9.3,0 13.9,0c0.5,0 0.9,0.1 1.3,0.5c4.4,3.8 8.8,7.6 13.2,11.4c0.4,0.3 0.6,0.4 1,0c1,-0.8 2.1,-1.6 3.4,-2.6c0,0.4 0,0.7 0,1c0,0.6 0,1.1 0.6,1.6c4.3,3.3 8.6,6.7 12.9,10.1c0.3,0.3 0.6,0.4 1.1,0.4c2.3,0 4.5,0 6.8,0c0.8,0 0.8,0 0.4,-0.7c-2,-3.7 -3.9,-7.5 -6,-11.2c-0.3,-0.5 -0.2,-0.7 0.3,-1.1c4.5,-3.2 9,-6.4 13.6,-9.5c0.3,-0.2 0.6,-0.5 0.8,-0.9c2.4,-3.9 4.7,-7.7 7.1,-11.6c0.2,-0.3 0.2,-0.6 0.1,-1zm-65.8,-22.8c3.3,-1.5 6.6,-3.1 9.9,-4.7c0.9,-0.5 1.9,-0.6 2.8,-0.7c5.8,-0.6 11.6,-1.1 17.4,-1.7c0.3,0 0.7,0 1,0.1c8.6,3 17.1,6 25.7,9c0.4,0.1 0.6,0.3 0.7,0.7c0.3,1.3 0.7,2.7 1.1,4c0.2,0.5 0,0.6 -0.5,0.6c-5.3,0 -10.6,0 -15.9,0c-0.5,0 -0.8,0.1 -1.1,0.6c-0.8,1.5 -1.7,3 -2.5,4.4c-0.2,0.3 -0.4,0.5 -0.8,0.5c-5.1,0 -10.2,0 -15.4,0c-0.3,0 -0.6,-0.1 -0.8,-0.4c-0.7,-1.2 -1.3,-2.3 -2,-3.5c-0.2,-0.3 -0.2,-0.6 0,-0.9c0.8,-1 1.5,-2.1 2.3,-3.2c0.2,-0.3 0.4,-0.4 0.8,-0.4c3.3,0 6.5,0 9.8,0c0.4,0 0.7,0.2 1,0.4c1.2,0.8 2.7,0.7 3.7,-0.3c0.9,-1 1.1,-2.5 0.3,-3.7c-0.8,-1.1 -2.4,-1.7 -3.6,-0.9c-1.1,0.8 -2.2,0.7 -3.3,0.7c-3.2,0 -6.5,0 -9.7,0c-0.5,0 -0.7,0.1 -1,0.5c-0.7,1.1 -1.5,2.2 -2.2,3.3c-0.3,0.4 -0.4,0.4 -0.6,0c-0.3,-1 -1,-1.2 -2,-1.2c-5.8,0.1 -11.6,0 -17.4,0c-0.3,0 -0.5,0 -0.8,0c0.8,-1.1 1.6,-2.5 3.1,-3.2zm54.7,33.5c-5.3,3.7 -10.5,7.4 -15.8,11.1c-0.4,0.3 -0.5,0.5 -0.2,1c1.5,2.8 2.9,5.6 4.4,8.4c0.1,0.2 0.3,0.5 0.2,0.8c-3.7,-2.9 -7.3,-5.7 -11,-8.5c-0.3,-0.3 -0.3,-0.5 -0.3,-0.9c0,-2.5 0,-4.9 0,-7.4c-0.3,0 -0.5,0.2 -0.7,0.4c-2.1,1.6 -4.3,3.3 -6.4,4.9c-0.5,0.4 -0.8,0.3 -1.2,-0.1c-3.9,-3.4 -7.8,-6.8 -11.7,-10.2c-0.4,-0.3 -0.8,-0.5 -1.3,-0.5c-4.5,0 -9,0 -13.5,0c-0.8,0 -1.1,-0.6 -1.5,-1.1c-0.2,-0.2 0.1,-0.4 0.2,-0.6c0.7,-1 1.4,-1.9 2,-2.9c0.6,-0.8 1.7,-1 2.5,-0.4c1.9,1.4 4.3,0.5 4.6,-1.8c0.2,-1.2 -0.4,-2.3 -1.4,-2.9c-1,-0.6 -2.4,-0.5 -3.2,0.3c-0.3,0.2 -0.5,0.3 -0.9,0.3c-0.9,0 -1.8,0 -2.7,0c-0.4,0 -0.7,0.1 -0.9,0.5c-0.9,1.3 -1.8,2.5 -2.7,3.8c-0.3,0.4 -0.4,0.4 -0.7,0c-1.7,-2.3 -3.5,-4.6 -5.2,-6.8c-0.2,-0.3 -0.3,-0.5 -0.2,-0.9c0.1,-0.7 0.3,-1.3 0.3,-2c0.1,-0.5 0.3,-0.7 0.8,-0.7c5.3,0 10.6,0 15.9,0c1,0 2,0 3,0c0.5,0 0.7,0.1 1,0.6c1.6,2.9 3.3,5.8 5,8.7c0.3,0.5 0.5,0.8 1.1,0.7c1.5,-0.3 2.4,0.3 3,1.7c0.8,1.8 2,3.5 2.9,5.2c0.2,0.4 0.4,0.5 0.8,0.5c1.1,0 2.2,0 3.3,0c0.9,0 1.7,0 2.6,0.6c1,0.7 2.7,0.4 3.3,-0.5c1.1,-1.4 1,-3 0,-4.1c-1,-1 -2.7,-1.3 -3.7,-0.4c-0.5,0.4 -1,0.4 -1.6,0.5c-1.7,0.3 -2.8,-0.3 -3.3,-2c-0.2,-0.4 -0.4,-0.8 -0.7,-1.4c0.3,0 0.5,0 0.7,0c4.3,0 8.5,0 12.8,0c0.5,0 0.7,0.1 1,0.6c0.6,1.2 1.3,2.3 2,3.4c0.2,0.4 0.5,0.5 1,0.5c5.6,0 11.3,0 16.9,0c0.3,0 0.5,0 0.9,0c-0.4,0.6 -0.8,1.2 -1.4,1.6zm6.6,-10.5c-0.9,1.4 -1.7,2.8 -2.6,4.2c-0.2,0.3 -0.4,0.4 -0.8,0.4c-5.8,0 -11.7,0 -17.5,0c-0.4,0 -0.6,-0.2 -0.8,-0.5c-0.7,-1.2 -1.4,-2.3 -2,-3.5c-0.2,-0.4 -0.5,-0.6 -1,-0.6c-6.7,0 -13.3,0 -20,0c-0.5,0 -0.9,-0.1 -1.1,-0.6c-1.6,-2.9 -3.3,-5.7 -5,-8.6c-0.3,-0.5 -0.5,-0.6 -1.1,-0.6c-6.8,0 -13.6,0 -20.3,0c-0.7,0 -0.7,-0.1 -0.7,-0.8c0.2,-2.2 1.9,-3.3 3.2,-4.8c0.2,-0.2 0.5,-0.2 0.7,-0.2c3.3,0 6.7,0 10,0c3.3,0 6.7,0 10,0c0.5,0 0.7,0.1 1,0.6c1.7,2.9 3.4,5.9 5.1,8.8c0.2,0.4 0.5,0.6 1,0.6c6.6,0 13.2,0 19.8,0c0.5,0 0.7,-0.2 0.9,-0.6c0.8,-1.5 1.7,-3 2.5,-4.4c0.2,-0.4 0.4,-0.5 0.8,-0.5c4.9,0 9.9,0 14.8,0c0.5,0 0.7,0.2 0.8,0.6c0.4,1.8 0.9,3.6 1.4,5.4c0.2,0.5 0,0.7 -0.5,0.6c-3.2,0 -6.4,0 -9.6,0c-0.4,0 -0.6,-0.1 -0.9,-0.3c-1.3,-1 -2.9,-0.8 -3.9,0.3c-1,1.1 -1,2.9 0.1,3.9c1.1,1.1 2.7,1.2 4,0.1c0.2,-0.2 0.4,-0.2 0.7,-0.2c3.6,0 7.1,0 10.7,0c0.6,0.1 0.6,0.3 0.3,0.7z"/>
   </g>
   <g fill="#dcdcdc" transform="matrix(0.8472729988690271,0,0,0.8472729988690271,-2.3384744788264125,85.8833714270538) " id="SvgjsG5364">
    <path id="svg_3" d="m15,11.44c4.0532,0 7.24,1.2533 9.56,3.76s3.48,5.96 3.48,10.36c0,4.56 -1.1667,8.1068 -3.5,10.64s-5.46,3.8 -9.38,3.8l-12.4,0l0,-28.56l12.24,0zm-0.4,23.28c2.2667,0 4.0268,-0.74668 5.28,-2.24s1.88,-3.6133 1.88,-6.36c0,-3.1467 -0.67332,-5.5 -2.02,-7.06s-3.42,-2.34 -6.22,-2.34l-4.48,0l0,18l5.56,0zm36.57,-23.28l10.68,28.56l-6.52,0l-2.16,-6.36l-10.68,0l-2.24,6.36l-6.36,0l10.84,-28.56l6.44,0zm-3.32,7.04l-3.72,10.48l7.4,0l-3.6,-10.48l-0.08,0zm29.85,-7.04l6.68,19.64l0.08,0l6.32,-19.64l8.84,0l0,28.56l-5.88,0l0,-20.24l-0.08,0l-7,20.24l-4.84,0l-7,-20.04l-0.08,0l0,20.04l-5.88,0l0,-28.56l8.84,0zm38.25,0l0,28.56l-6.28,0l0,-28.56l6.28,0zm16.33,0l0,23.28l13.92,0l0,5.28l-20.2,0l0,-28.56l6.28,0zm34.77,-0.68c4.2132,0 7.6068,1.4 10.18,4.2s3.86,6.4268 3.86,10.88c0,4.3468 -1.2933,7.9068 -3.88,10.68s-5.9732,4.16 -10.16,4.16c-4.2132,0 -7.6068,-1.3867 -10.18,-4.16s-3.86,-6.3332 -3.86,-10.68c0,-4.4268 1.2933,-8.0468 3.88,-10.86s5.9732,-4.22 10.16,-4.22zm-7.76,15.08c0,2.88 0.67996,5.1932 2.04,6.94s3.2667,2.62 5.72,2.62c2.4,0 4.2932,-0.86 5.68,-2.58s2.08,-4.0468 2.08,-6.98c0,-3.0667 -0.68668,-5.4668 -2.06,-7.2s-3.2866,-2.6 -5.74,-2.6c-2.4,0 -4.2868,0.86668 -5.66,2.6s-2.06,4.1332 -2.06,7.2zm36.89,-14.4l0,23.28l13.92,0l0,5.28l-20.2,0l0,-28.56l6.28,0zm36.21,0l10.68,28.56l-6.52,0l-2.16,-6.36l-10.68,0l-2.24,6.36l-6.36,0l10.84,-28.56l6.44,0zm-3.32,7.04l-3.72,10.48l7.4,0l-3.6,-10.48l-0.08,0zm40.62,-7.04l6.68,11.28l6.64,-11.28l7,0l-10.6,17.6l0,10.96l-6.28,0l0,-11.12l-10.52,-17.44l7.08,0zm33.41,0l-0.00004,17.88c0,2.1067 0.47332,3.6467 1.42,4.62s2.4334,1.46 4.46,1.46c2.1867,0 3.72,-0.48668 4.6,-1.46s1.32,-2.5133 1.32,-4.62l0,-17.88l6.28,0l0,17.88c0,3.5733 -1.02,6.36 -3.06,8.36s-5.0868,3 -9.14,3c-4.1332,0 -7.1932,-1 -9.18,-3s-2.98,-4.7868 -2.98,-8.36l0,-17.88l6.28,0l0.00004,0zm37.85,-0.68c3.4933,0 6.2732,0.80004 8.34,2.4s3.1,3.8667 3.1,6.8l-6.08,0c-0.08,-1.44 -0.56668,-2.52 -1.46,-3.24s-2.2733,-1.08 -4.14,-1.08c-1.3067,0 -2.36,0.28668 -3.16,0.86s-1.2,1.3666 -1.2,2.38c0,0.82668 0.24668,1.4267 0.74,1.8s1.1933,0.70664 2.1,0.99996s2.4934,0.72 4.76,1.28c2.3733,0.58668 4.2,1.2267 5.48,1.92s2.2533,1.58 2.92,2.66s1,2.4067 1,3.98c0,1.8133 -0.48,3.4266 -1.44,4.84s-2.36,2.4866 -4.2,3.22s-3.92,1.1 -6.24,1.1c-3.5467,0 -6.46,-0.88668 -8.74,-2.66s-3.42,-4.2068 -3.42,-7.3l0,-0.2l6.08,0c0,1.68 0.57332,2.98 1.72,3.9s2.6667,1.38 4.56,1.38c1.68,0 3.0333,-0.3 4.06,-0.9s1.54,-1.4867 1.54,-2.66c0,-0.77332 -0.28,-1.4266 -0.84,-1.96s-1.3067,-0.96664 -2.24,-1.3s-2.5066,-0.75332 -4.72,-1.26c-2.56,-0.64 -4.4268,-1.32 -5.6,-2.04s-2.0666,-1.5933 -2.68,-2.62s-0.92,-2.26 -0.92,-3.7c0,-1.7867 0.51332,-3.3467 1.54,-4.68s2.3667,-2.32 4.02,-2.96s3.36,-0.96 5.12,-0.96l0,0.00004zm26.81,0.68l-0.00004,17.88c0,2.1067 0.47332,3.6467 1.42,4.62s2.4334,1.46 4.46,1.46c2.1867,0 3.72,-0.48668 4.6,-1.46s1.32,-2.5133 1.32,-4.62l0,-17.88l6.28,0l0,17.88c0,3.5733 -1.02,6.36 -3.06,8.36s-5.0868,3 -9.14,3c-4.1332,0 -7.1932,-1 -9.18,-3s-2.98,-4.7868 -2.98,-8.36l0,-17.88l6.28,0l0.00004,0zm48.09,0l0,5.28l-13.8,0l0,6.6l11.96,0l0,4.88l-11.96,0l0,11.8l-6.28,0l0,-28.56l20.08,0z"/>
   </g>
  </g>
 </g>
</svg>